<?xml version="1.0" encoding="utf-8"?>
<svg xmlns="http://www.w3.org/2000/svg" viewBox="123.7676 224.843 56.126 50.314" width="56.126px" height="50.314px">
  <rect x="115.601" y="221.565" width="72.064" height="58.783" style="fill: rgb(216, 216, 216); stroke: rgb(0, 0, 0); stroke-width: 0px;"/>
  <path d="M 136.315 62.778 L 125.116 62.778 L 125.116 97.584 L 132.676 97.584 L 132.676 105.981 L 116.394 105.981 L 116.394 97.584 L 116.437 97.584 L 116.437 62.778 L 116.394 62.778 L 116.394 55.667 L 136.315 55.667 L 136.315 62.778 Z" style="text-wrap-mode: nowrap; stroke-width: 1; fill: rgb(68, 68, 68);" transform="matrix(1, 0, 0, 0.9999999999999999, 7.373570075237307, 169.17599739396564)"/>
  <path d="M 145.89 75.296 L 149.305 75.296 L 149.305 80.03 L 145.89 80.03 L 145.89 89.063 L 149.341 89.063 L 149.341 94.013 L 137.724 94.013 L 137.724 89.063 L 140.524 89.063 L 140.524 80.03 L 137.688 80.03 L 137.688 75.296 L 140.524 75.296 L 140.524 72.189 Q 140.524 70.545 141.103 69.298 Q 141.681 68.052 142.647 67.202 Q 143.614 66.353 144.878 65.92 Q 146.143 65.486 147.534 65.486 Q 148.564 65.486 149.377 65.64 Q 150.19 65.793 150.804 66.028 Q 151.419 66.263 151.843 66.534 Q 152.268 66.805 152.521 67.04 L 150.443 70.852 Q 150.027 70.545 149.503 70.364 Q 148.98 70.183 148.221 70.183 Q 147.733 70.183 147.308 70.346 Q 146.884 70.509 146.568 70.816 Q 146.252 71.123 146.071 71.584 Q 145.89 72.044 145.89 72.659 Z" transform="matrix(1, 0, 0, 1, 7.37357, 169.175997)" style="text-wrap-mode: nowrap; fill: rgb(68, 68, 68);"/>
  <path d="M 172.519 98.87 L 161.32 98.87 L 161.32 64.064 L 168.88 64.064 L 168.88 55.667 L 152.598 55.667 L 152.598 64.064 L 152.641 64.064 L 152.641 98.87 L 152.598 98.87 L 152.598 105.981 L 172.519 105.981 L 172.519 98.87 Z" style="text-wrap-mode: nowrap; stroke-width: 1; transform-origin: 162.559px 80.824px; fill: rgb(68, 68, 68);" transform="matrix(-1, 0, 0, -1, 7.37357063, 169.17601506)"/>
</svg>