<?xml version="1.0" encoding="utf-8"?>
<svg xmlns="http://www.w3.org/2000/svg" viewBox="116.394 55.667 271.7659 50.314" width="271.766px" height="50.314px" xmlns:bx="https://boxy-svg.com">
  <defs>
    <bx:export>
      <bx:file format="png" path="frame-check-logo-light.png"/>
      <bx:file format="png"/>
      <bx:file format="png" href="#object-0" path="frame-check-logo.png" dpi="300"/>
    </bx:export>
  </defs>
  <g transform="matrix(1, 0, 0, 1, -1.1368683772161603e-13, -2.842170943040401e-14)" id="object-0">
    <path d="M 136.315 62.778 L 125.116 62.778 L 125.116 97.584 L 132.676 97.584 L 132.676 105.981 L 116.394 105.981 L 116.394 97.584 L 116.437 97.584 L 116.437 62.778 L 116.394 62.778 L 116.394 55.667 L 136.315 55.667 L 136.315 62.778 Z" style="text-wrap-mode: nowrap; stroke-width: 1; fill: rgb(69, 69, 69);"/>
    <path d="M 144.3 75.259 L 148.636 75.259 L 148.636 77.987 L 144.3 77.987 L 144.3 90.869 L 147.227 90.869 L 147.227 93.976 L 138.122 93.976 L 138.122 90.869 L 140.94 90.869 L 140.94 77.987 L 137.851 77.987 L 137.851 75.259 L 140.94 75.259 L 140.94 72.332 Q 140.976 70.706 141.41 69.496 Q 141.843 68.286 142.638 67.473 Q 143.433 66.66 144.553 66.262 Q 145.673 65.865 147.046 65.865 Q 148.004 65.865 148.763 65.955 Q 149.522 66.045 150.118 66.199 Q 150.714 66.352 151.175 66.533 Q 151.635 66.714 151.997 66.894 L 150.967 69.297 Q 150.389 68.99 149.458 68.773 Q 148.528 68.557 147.516 68.557 Q 146.017 68.557 145.159 69.487 Q 144.3 70.417 144.3 72.224 Z M 165.039 79.216 L 161.606 79.216 L 161.606 78.059 Q 161.01 78.059 160.387 78.285 Q 159.764 78.511 159.222 78.972 Q 158.68 79.433 158.273 80.146 Q 157.867 80.86 157.686 81.835 L 157.686 90.869 L 160.866 90.869 L 160.866 93.976 L 151.579 93.976 L 151.579 90.869 L 154.163 90.869 L 154.181 78.367 L 151.579 78.367 L 151.579 75.259 L 157.559 75.259 L 157.559 77.843 Q 157.885 77.265 158.291 76.768 Q 158.698 76.271 159.194 75.901 Q 159.691 75.53 160.297 75.322 Q 160.902 75.115 161.606 75.115 Q 162.546 75.115 163.377 75.115 Q 164.208 75.115 165.039 75.151 Z M 179.927 92.242 Q 178.861 93.235 177.569 93.868 Q 176.277 94.5 174.633 94.5 Q 173.26 94.5 172.113 94.066 Q 170.966 93.633 170.135 92.883 Q 169.304 92.133 168.843 91.14 Q 168.382 90.146 168.382 89.026 Q 168.382 87.833 168.735 86.912 Q 169.087 85.991 169.674 85.313 Q 170.261 84.636 171.047 84.175 Q 171.833 83.714 172.691 83.434 Q 173.549 83.154 174.444 83.037 Q 175.338 82.919 176.151 82.919 Q 177.452 82.919 178.337 83.001 Q 179.222 83.082 179.945 83.226 L 179.963 81.691 Q 179.963 80.697 179.674 79.965 Q 179.385 79.234 178.861 78.755 Q 178.337 78.276 177.605 78.041 Q 176.873 77.807 175.97 77.807 Q 175.121 77.807 174.344 77.924 Q 173.567 78.041 172.89 78.231 Q 172.212 78.421 171.643 78.665 Q 171.074 78.909 170.677 79.18 L 169.575 76.849 Q 170.243 76.415 171.038 76.045 Q 171.833 75.675 172.709 75.413 Q 173.585 75.151 174.498 74.997 Q 175.41 74.844 176.295 74.844 Q 177.921 74.844 179.222 75.232 Q 180.523 75.621 181.426 76.434 Q 182.33 77.247 182.817 78.502 Q 183.305 79.758 183.305 81.51 L 183.287 90.869 L 185.365 90.869 L 185.365 93.976 L 179.927 93.976 Z M 175.374 91.682 Q 176.042 91.682 176.711 91.519 Q 177.379 91.356 177.976 91.076 Q 178.572 90.796 179.078 90.426 Q 179.583 90.056 179.927 89.658 L 179.945 85.431 L 176.042 85.431 Q 175.067 85.431 174.263 85.647 Q 173.459 85.864 172.872 86.28 Q 172.285 86.695 171.959 87.309 Q 171.634 87.924 171.634 88.719 Q 171.634 89.459 171.905 90.01 Q 172.176 90.561 172.673 90.932 Q 173.17 91.302 173.856 91.492 Q 174.543 91.682 175.374 91.682 Z M 189.159 75.259 L 195.121 75.259 L 195.121 77.445 L 195.157 77.445 Q 195.771 76.921 196.449 76.461 Q 197.126 76 197.867 75.657 Q 198.608 75.313 199.411 75.115 Q 200.215 74.916 201.083 74.916 Q 203.106 74.916 204.569 75.666 Q 206.033 76.415 206.828 78.005 Q 207.514 77.391 208.273 76.822 Q 209.032 76.253 209.854 75.837 Q 210.676 75.422 211.579 75.169 Q 212.483 74.916 213.458 74.916 Q 214.976 74.916 216.186 75.331 Q 217.397 75.747 218.246 76.596 Q 219.095 77.445 219.537 78.773 Q 219.98 80.101 219.98 81.908 L 219.98 90.869 L 222.582 90.869 L 222.582 93.976 L 213.837 93.976 L 213.837 90.869 L 216.475 90.869 L 216.475 82.323 Q 216.475 80.173 215.391 79.062 Q 214.307 77.951 212.266 77.951 Q 211.055 77.951 209.791 78.529 Q 208.526 79.107 207.623 79.993 L 207.623 90.869 L 210.206 90.869 L 210.206 93.976 L 201.48 93.976 L 201.48 90.869 L 204.118 90.869 L 204.118 82.323 Q 204.118 80.173 203.025 79.062 Q 201.932 77.951 199.89 77.951 Q 198.716 77.951 197.524 78.511 Q 196.331 79.071 195.265 79.902 L 195.265 90.869 L 197.903 90.869 L 197.903 93.976 L 189.159 93.976 L 189.159 90.869 L 191.76 90.869 L 191.76 78.367 L 189.159 78.367 Z M 229.375 85.051 Q 229.375 85.846 229.492 86.506 Q 229.609 87.165 229.826 87.761 Q 230.495 89.568 231.967 90.48 Q 233.44 91.393 235.3 91.393 Q 236.764 91.393 238.146 90.986 Q 239.528 90.58 241.045 89.712 L 242.4 92.007 Q 240.558 93.271 238.697 93.886 Q 236.836 94.5 234.831 94.5 Q 232.934 94.5 231.317 93.868 Q 229.7 93.235 228.534 91.989 Q 227.369 90.742 226.71 88.881 Q 226.05 87.02 226.05 84.545 Q 226.05 82.54 226.61 80.76 Q 227.17 78.981 228.282 77.653 Q 229.393 76.325 231.037 75.548 Q 232.681 74.771 234.867 74.771 Q 236.981 74.771 238.399 75.413 Q 239.817 76.054 240.711 77.111 Q 241.606 78.168 242.066 79.523 Q 242.527 80.878 242.708 82.287 Q 242.798 82.974 242.825 83.678 Q 242.852 84.383 242.852 85.051 Z M 234.632 77.59 Q 233.458 77.59 232.581 77.924 Q 231.705 78.258 231.091 78.882 Q 230.477 79.505 230.106 80.408 Q 229.736 81.311 229.555 82.432 L 239.257 82.432 Q 239.185 81.384 238.923 80.498 Q 238.661 79.613 238.119 78.963 Q 237.577 78.312 236.728 77.951 Q 235.878 77.59 234.632 77.59 Z M 247.313 85.015 L 247.313 81.908 L 257.268 81.908 L 257.268 85.015 Z M 274.25 80.246 Q 273.491 78.891 272.326 78.258 Q 271.161 77.626 269.625 77.626 Q 268.451 77.626 267.421 78.114 Q 266.391 78.601 265.623 79.505 Q 264.855 80.408 264.413 81.7 Q 263.97 82.992 263.97 84.581 Q 263.97 86.153 264.413 87.418 Q 264.855 88.683 265.632 89.577 Q 266.409 90.471 267.43 90.95 Q 268.451 91.429 269.625 91.429 Q 271.359 91.429 272.642 90.589 Q 273.925 89.748 274.684 88.122 L 277.466 89.496 Q 276.924 90.652 276.129 91.573 Q 275.334 92.495 274.331 93.145 Q 273.329 93.795 272.127 94.148 Q 270.926 94.5 269.589 94.5 Q 267.638 94.5 265.985 93.768 Q 264.332 93.037 263.13 91.718 Q 261.929 90.399 261.26 88.574 Q 260.592 86.749 260.592 84.581 Q 260.592 82.413 261.296 80.589 Q 262.001 78.764 263.229 77.454 Q 264.458 76.144 266.102 75.404 Q 267.746 74.663 269.625 74.663 Q 271.395 74.663 272.976 75.277 Q 274.557 75.892 275.749 77.138 L 277.646 77.138 L 277.646 80.246 Z M 281.189 65.865 L 287.115 65.865 L 287.115 77.319 L 287.223 77.319 Q 287.729 76.813 288.388 76.37 Q 289.048 75.928 289.77 75.602 Q 290.493 75.277 291.27 75.097 Q 292.047 74.916 292.896 74.916 Q 294.395 74.916 295.606 75.331 Q 296.816 75.747 297.665 76.596 Q 298.514 77.445 298.975 78.773 Q 299.436 80.101 299.436 81.908 L 299.436 90.869 L 302.254 90.869 L 302.254 93.976 L 293.365 93.976 L 293.365 90.869 L 295.931 90.869 L 295.931 82.323 Q 295.931 80.173 294.838 79.062 Q 293.745 77.951 291.703 77.951 Q 290.547 77.951 289.355 78.502 Q 288.162 79.053 287.115 79.884 L 287.115 90.869 L 289.824 90.869 L 289.824 93.976 L 280.936 93.976 L 280.936 90.869 L 283.754 90.869 L 283.754 68.972 L 281.189 68.972 Z M 308.576 85.051 Q 308.576 85.846 308.694 86.506 Q 308.811 87.165 309.028 87.761 Q 309.696 89.568 311.169 90.48 Q 312.641 91.393 314.502 91.393 Q 315.965 91.393 317.348 90.986 Q 318.73 90.58 320.247 89.712 L 321.602 92.007 Q 319.759 93.271 317.899 93.886 Q 316.038 94.5 314.032 94.5 Q 312.135 94.5 310.518 93.868 Q 308.901 93.235 307.736 91.989 Q 306.571 90.742 305.911 88.881 Q 305.252 87.02 305.252 84.545 Q 305.252 82.54 305.812 80.76 Q 306.372 78.981 307.483 77.653 Q 308.594 76.325 310.238 75.548 Q 311.882 74.771 314.068 74.771 Q 316.182 74.771 317.6 75.413 Q 319.019 76.054 319.913 77.111 Q 320.807 78.168 321.268 79.523 Q 321.729 80.878 321.909 82.287 Q 322 82.974 322.027 83.678 Q 322.054 84.383 322.054 85.051 Z M 313.834 77.59 Q 312.659 77.59 311.783 77.924 Q 310.907 78.258 310.293 78.882 Q 309.678 79.505 309.308 80.408 Q 308.938 81.311 308.757 82.432 L 318.459 82.432 Q 318.386 81.384 318.124 80.498 Q 317.862 79.613 317.32 78.963 Q 316.778 78.312 315.929 77.951 Q 315.08 77.59 313.834 77.59 Z M 340.139 80.246 Q 339.38 78.891 338.215 78.258 Q 337.049 77.626 335.514 77.626 Q 334.34 77.626 333.31 78.114 Q 332.28 78.601 331.512 79.505 Q 330.744 80.408 330.302 81.7 Q 329.859 82.992 329.859 84.581 Q 329.859 86.153 330.302 87.418 Q 330.744 88.683 331.521 89.577 Q 332.298 90.471 333.319 90.95 Q 334.34 91.429 335.514 91.429 Q 337.248 91.429 338.531 90.589 Q 339.814 89.748 340.572 88.122 L 343.355 89.496 Q 342.813 90.652 342.018 91.573 Q 341.223 92.495 340.22 93.145 Q 339.217 93.795 338.016 94.148 Q 336.815 94.5 335.478 94.5 Q 333.527 94.5 331.873 93.768 Q 330.22 93.037 329.019 91.718 Q 327.818 90.399 327.149 88.574 Q 326.481 86.749 326.481 84.581 Q 326.481 82.413 327.185 80.589 Q 327.89 78.764 329.118 77.454 Q 330.347 76.144 331.991 75.404 Q 333.635 74.663 335.514 74.663 Q 337.284 74.663 338.865 75.277 Q 340.446 75.892 341.638 77.138 L 343.535 77.138 L 343.535 80.246 Z M 346.678 65.865 L 353.273 65.865 L 353.273 68.972 L 353.237 68.972 L 353.237 82.955 L 356.489 82.955 L 360.933 78.367 L 359.813 78.367 L 359.813 75.259 L 366.913 75.259 L 366.913 78.367 L 364.546 78.367 L 358.855 84.238 L 365.07 90.869 L 367.328 90.869 L 367.328 93.976 L 363.372 93.976 L 355.712 85.611 L 353.237 85.611 L 353.237 90.869 L 354.79 90.869 L 354.79 93.976 L 346.787 93.976 L 346.787 90.869 L 349.858 90.869 L 349.858 68.972 L 346.678 68.972 Z" style="text-wrap-mode: nowrap; fill: rgb(69, 69, 69);"/>
    <path d="M 388.159 98.87 L 376.96 98.87 L 376.96 64.064 L 384.52 64.064 L 384.52 55.667 L 368.238 55.667 L 368.238 64.064 L 368.281 64.064 L 368.281 98.87 L 368.238 98.87 L 368.238 105.981 L 388.159 105.981 L 388.159 98.87 Z" style="text-wrap-mode: nowrap; stroke-width: 1; transform-origin: 378.199px 80.824px; fill: rgb(69, 69, 69);" transform="matrix(-1, 0, 0, -1, -0.000079, -0.000003)"/>
  </g>
</svg>